<?xml version="1.0" encoding="UTF-8" standalone="no"?><svg xmlns="http://www.w3.org/2000/svg" xmlns:xlink="http://www.w3.org/1999/xlink" contentScriptType="application/ecmascript" contentStyleType="text/css" height="613px" preserveAspectRatio="none" style="width:570px;height:613px;" version="1.1" viewBox="0 0 570 613" width="570px" zoomAndPan="magnify"><defs><filter height="300%" id="f1m0eb90u5tpy9" width="300%" x="-1" y="-1"><feGaussianBlur result="blurOut" stdDeviation="2.0"/><feColorMatrix in="blurOut" result="blurOut2" type="matrix" values="0 0 0 0 0 0 0 0 0 0 0 0 0 0 0 0 0 0 .4 0"/><feOffset dx="4.0" dy="4.0" in="blurOut2" result="blurOut3"/><feBlend in="SourceGraphic" in2="blurOut3" mode="normal"/></filter></defs><g><rect fill="#FFFFFF" filter="url(#f1m0eb90u5tpy9)" height="465.7949" style="stroke: #A80036; stroke-width: 1.0;" width="10" x="29" y="48.4883"/><rect fill="#FFFFFF" filter="url(#f1m0eb90u5tpy9)" height="30" style="stroke: #A80036; stroke-width: 1.0;" width="10" x="212" y="69.7988"/><rect fill="#FFFFFF" filter="url(#f1m0eb90u5tpy9)" height="30" style="stroke: #A80036; stroke-width: 1.0;" width="10" x="212" y="188.4199"/><rect fill="#FFFFFF" filter="url(#f1m0eb90u5tpy9)" height="59.3105" style="stroke: #A80036; stroke-width: 1.0;" width="10" x="212" y="247.7305"/><rect fill="#FFFFFF" filter="url(#f1m0eb90u5tpy9)" height="30" style="stroke: #A80036; stroke-width: 1.0;" width="10" x="212" y="395.6621"/><rect fill="#FFFFFF" filter="url(#f1m0eb90u5tpy9)" height="59.3105" style="stroke: #A80036; stroke-width: 1.0;" width="10" x="212" y="454.9727"/><rect fill="#FFFFFF" filter="url(#f1m0eb90u5tpy9)" height="30" style="stroke: #A80036; stroke-width: 1.0;" width="10" x="331.5" y="129.1094"/><rect fill="#FFFFFF" filter="url(#f1m0eb90u5tpy9)" height="30" style="stroke: #A80036; stroke-width: 1.0;" width="10" x="331.5" y="277.041"/><rect fill="#FFFFFF" filter="url(#f1m0eb90u5tpy9)" height="30" style="stroke: #A80036; stroke-width: 1.0;" width="10" x="486.5" y="336.3516"/><rect fill="#FFFFFF" filter="url(#f1m0eb90u5tpy9)" height="30" style="stroke: #A80036; stroke-width: 1.0;" width="10" x="486.5" y="484.2832"/><line style="stroke: #A80036; stroke-width: 1.0;" x1="34" x2="34" y1="38.4883" y2="522.2832"/><line style="stroke: #A80036; stroke-width: 1.0; stroke-dasharray: 1.0,4.0;" x1="34" x2="34" y1="522.2832" y2="563.2383"/><line style="stroke: #A80036; stroke-width: 1.0;" x1="34" x2="34" y1="563.2383" y2="573.2383"/><line style="stroke: #A80036; stroke-width: 1.0;" x1="216.5" x2="216.5" y1="38.4883" y2="522.2832"/><line style="stroke: #A80036; stroke-width: 1.0; stroke-dasharray: 1.0,4.0;" x1="216.5" x2="216.5" y1="522.2832" y2="563.2383"/><line style="stroke: #A80036; stroke-width: 1.0;" x1="216.5" x2="216.5" y1="563.2383" y2="573.2383"/><line style="stroke: #A80036; stroke-width: 1.0;" x1="336.5" x2="336.5" y1="38.4883" y2="522.2832"/><line style="stroke: #A80036; stroke-width: 1.0; stroke-dasharray: 1.0,4.0;" x1="336.5" x2="336.5" y1="522.2832" y2="563.2383"/><line style="stroke: #A80036; stroke-width: 1.0;" x1="336.5" x2="336.5" y1="563.2383" y2="573.2383"/><line style="stroke: #A80036; stroke-width: 1.0;" x1="491.5" x2="491.5" y1="38.4883" y2="522.2832"/><line style="stroke: #A80036; stroke-width: 1.0; stroke-dasharray: 1.0,4.0;" x1="491.5" x2="491.5" y1="522.2832" y2="563.2383"/><line style="stroke: #A80036; stroke-width: 1.0;" x1="491.5" x2="491.5" y1="563.2383" y2="573.2383"/><rect fill="#FEFECE" filter="url(#f1m0eb90u5tpy9)" height="30.4883" style="stroke: #A80036; stroke-width: 1.5;" width="48" x="8" y="3"/><text fill="#000000" font-family="sans-serif" font-size="14" lengthAdjust="spacingAndGlyphs" textLength="34" x="15" y="23.5352">main</text><rect fill="#FEFECE" filter="url(#f1m0eb90u5tpy9)" height="30.4883" style="stroke: #A80036; stroke-width: 1.5;" width="48" x="8" y="572.2383"/><text fill="#000000" font-family="sans-serif" font-size="14" lengthAdjust="spacingAndGlyphs" textLength="34" x="15" y="592.7734">main</text><rect fill="#FEFECE" filter="url(#f1m0eb90u5tpy9)" height="30.4883" style="stroke: #A80036; stroke-width: 1.5;" width="69" x="180.5" y="3"/><text fill="#000000" font-family="sans-serif" font-size="14" lengthAdjust="spacingAndGlyphs" textLength="55" x="187.5" y="23.5352">Context</text><rect fill="#FEFECE" filter="url(#f1m0eb90u5tpy9)" height="30.4883" style="stroke: #A80036; stroke-width: 1.5;" width="69" x="180.5" y="572.2383"/><text fill="#000000" font-family="sans-serif" font-size="14" lengthAdjust="spacingAndGlyphs" textLength="55" x="187.5" y="592.7734">Context</text><rect fill="#FEFECE" filter="url(#f1m0eb90u5tpy9)" height="30.4883" style="stroke: #A80036; stroke-width: 1.5;" width="142" x="263.5" y="3"/><text fill="#000000" font-family="sans-serif" font-size="14" lengthAdjust="spacingAndGlyphs" textLength="128" x="270.5" y="23.5352">ConcreteStrategyA</text><rect fill="#FEFECE" filter="url(#f1m0eb90u5tpy9)" height="30.4883" style="stroke: #A80036; stroke-width: 1.5;" width="142" x="263.5" y="572.2383"/><text fill="#000000" font-family="sans-serif" font-size="14" lengthAdjust="spacingAndGlyphs" textLength="128" x="270.5" y="592.7734">ConcreteStrategyA</text><rect fill="#FEFECE" filter="url(#f1m0eb90u5tpy9)" height="30.4883" style="stroke: #A80036; stroke-width: 1.5;" width="140" x="419.5" y="3"/><text fill="#000000" font-family="sans-serif" font-size="14" lengthAdjust="spacingAndGlyphs" textLength="126" x="426.5" y="23.5352">ConcreteStrategyB</text><rect fill="#FEFECE" filter="url(#f1m0eb90u5tpy9)" height="30.4883" style="stroke: #A80036; stroke-width: 1.5;" width="140" x="419.5" y="572.2383"/><text fill="#000000" font-family="sans-serif" font-size="14" lengthAdjust="spacingAndGlyphs" textLength="126" x="426.5" y="592.7734">ConcreteStrategyB</text><rect fill="#FFFFFF" filter="url(#f1m0eb90u5tpy9)" height="465.7949" style="stroke: #A80036; stroke-width: 1.0;" width="10" x="29" y="48.4883"/><rect fill="#FFFFFF" filter="url(#f1m0eb90u5tpy9)" height="30" style="stroke: #A80036; stroke-width: 1.0;" width="10" x="212" y="69.7988"/><rect fill="#FFFFFF" filter="url(#f1m0eb90u5tpy9)" height="30" style="stroke: #A80036; stroke-width: 1.0;" width="10" x="212" y="188.4199"/><rect fill="#FFFFFF" filter="url(#f1m0eb90u5tpy9)" height="59.3105" style="stroke: #A80036; stroke-width: 1.0;" width="10" x="212" y="247.7305"/><rect fill="#FFFFFF" filter="url(#f1m0eb90u5tpy9)" height="30" style="stroke: #A80036; stroke-width: 1.0;" width="10" x="212" y="395.6621"/><rect fill="#FFFFFF" filter="url(#f1m0eb90u5tpy9)" height="59.3105" style="stroke: #A80036; stroke-width: 1.0;" width="10" x="212" y="454.9727"/><rect fill="#FFFFFF" filter="url(#f1m0eb90u5tpy9)" height="30" style="stroke: #A80036; stroke-width: 1.0;" width="10" x="331.5" y="129.1094"/><rect fill="#FFFFFF" filter="url(#f1m0eb90u5tpy9)" height="30" style="stroke: #A80036; stroke-width: 1.0;" width="10" x="331.5" y="277.041"/><rect fill="#FFFFFF" filter="url(#f1m0eb90u5tpy9)" height="30" style="stroke: #A80036; stroke-width: 1.0;" width="10" x="486.5" y="336.3516"/><rect fill="#FFFFFF" filter="url(#f1m0eb90u5tpy9)" height="30" style="stroke: #A80036; stroke-width: 1.0;" width="10" x="486.5" y="484.2832"/><polygon fill="#A80036" points="200,65.7988,210,69.7988,200,73.7988,204,69.7988" style="stroke: #A80036; stroke-width: 1.0;"/><line style="stroke: #A80036; stroke-width: 1.0; stroke-dasharray: 2.0,2.0;" x1="39" x2="206" y1="69.7988" y2="69.7988"/><text fill="#000000" font-family="sans-serif" font-size="13" lengthAdjust="spacingAndGlyphs" textLength="94" x="46" y="65.0566">1. &lt;&lt;create&gt;&gt;</text><polygon fill="#A80036" points="319.5,125.1094,329.5,129.1094,319.5,133.1094,323.5,129.1094" style="stroke: #A80036; stroke-width: 1.0;"/><line style="stroke: #A80036; stroke-width: 1.0; stroke-dasharray: 2.0,2.0;" x1="39" x2="325.5" y1="129.1094" y2="129.1094"/><text fill="#000000" font-family="sans-serif" font-size="13" lengthAdjust="spacingAndGlyphs" textLength="94" x="46" y="124.3672">2. &lt;&lt;create&gt;&gt;</text><polygon fill="#A80036" points="200,184.4199,210,188.4199,200,192.4199,204,188.4199" style="stroke: #A80036; stroke-width: 1.0;"/><line style="stroke: #A80036; stroke-width: 1.0;" x1="39" x2="206" y1="188.4199" y2="188.4199"/><text fill="#000000" font-family="sans-serif" font-size="13" lengthAdjust="spacingAndGlyphs" textLength="154" x="46" y="183.6777">3. setStrategy(strategyA)</text><polygon fill="#A80036" points="200,243.7305,210,247.7305,200,251.7305,204,247.7305" style="stroke: #A80036; stroke-width: 1.0;"/><line style="stroke: #A80036; stroke-width: 1.0;" x1="39" x2="206" y1="247.7305" y2="247.7305"/><text fill="#000000" font-family="sans-serif" font-size="13" lengthAdjust="spacingAndGlyphs" textLength="85" x="46" y="242.9883">4. algorithm()</text><polygon fill="#A80036" points="319.5,273.041,329.5,277.041,319.5,281.041,323.5,277.041" style="stroke: #A80036; stroke-width: 1.0;"/><line style="stroke: #A80036; stroke-width: 1.0;" x1="222" x2="325.5" y1="277.041" y2="277.041"/><text fill="#000000" font-family="sans-serif" font-size="13" lengthAdjust="spacingAndGlyphs" textLength="85" x="229" y="272.2988">5. algorithm()</text><polygon fill="#A80036" points="474.5,332.3516,484.5,336.3516,474.5,340.3516,478.5,336.3516" style="stroke: #A80036; stroke-width: 1.0;"/><line style="stroke: #A80036; stroke-width: 1.0; stroke-dasharray: 2.0,2.0;" x1="39" x2="480.5" y1="336.3516" y2="336.3516"/><text fill="#000000" font-family="sans-serif" font-size="13" lengthAdjust="spacingAndGlyphs" textLength="94" x="46" y="331.6094">6. &lt;&lt;create&gt;&gt;</text><polygon fill="#A80036" points="200,391.6621,210,395.6621,200,399.6621,204,395.6621" style="stroke: #A80036; stroke-width: 1.0;"/><line style="stroke: #A80036; stroke-width: 1.0;" x1="39" x2="206" y1="395.6621" y2="395.6621"/><text fill="#000000" font-family="sans-serif" font-size="13" lengthAdjust="spacingAndGlyphs" textLength="152" x="46" y="390.9199">7. setStrategy(strategyB)</text><polygon fill="#A80036" points="200,450.9727,210,454.9727,200,458.9727,204,454.9727" style="stroke: #A80036; stroke-width: 1.0;"/><line style="stroke: #A80036; stroke-width: 1.0;" x1="39" x2="206" y1="454.9727" y2="454.9727"/><text fill="#000000" font-family="sans-serif" font-size="13" lengthAdjust="spacingAndGlyphs" textLength="85" x="46" y="450.2305">8. algorithm()</text><polygon fill="#A80036" points="474.5,480.2832,484.5,484.2832,474.5,488.2832,478.5,484.2832" style="stroke: #A80036; stroke-width: 1.0;"/><line style="stroke: #A80036; stroke-width: 1.0;" x1="222" x2="480.5" y1="484.2832" y2="484.2832"/><text fill="#000000" font-family="sans-serif" font-size="13" lengthAdjust="spacingAndGlyphs" textLength="85" x="229" y="479.541">9. algorithm()</text><text fill="#000000" font-family="sans-serif" font-size="11" lengthAdjust="spacingAndGlyphs" textLength="0" x="265.75" y="546.918"/><!--MD5=[7d176c2a512c8ddb28ca6e2a499ff879]
@startuml

activate main

main - -> Context : 1. <<create>>
activate Context
deactivate Context

main - -> ConcreteStrategyA : 2. <<create>>
activate ConcreteStrategyA
deactivate ConcreteStrategyA

main -> Context : 3. setStrategy(strategyA)
activate Context
deactivate Context

main -> Context : 4. algorithm()
activate Context
Context -> ConcreteStrategyA : 5. algorithm()
activate ConcreteStrategyA
deactivate ConcreteStrategyA
deactivate Context

main - -> ConcreteStrategyB : 6. <<create>>
activate ConcreteStrategyB
deactivate ConcreteStrategyB

main -> Context : 7. setStrategy(strategyB)
activate Context
deactivate Context

main -> Context : 8. algorithm()
activate Context
Context -> ConcreteStrategyB : 9. algorithm()
activate ConcreteStrategyB
deactivate ConcreteStrategyB
deactivate Context

deactivate main

...  ...

@enduml

PlantUML version 1.2020.10(Sun May 17 17:35:57 CST 2020)
(GPL source distribution)
Java Runtime: OpenJDK Runtime Environment
JVM: OpenJDK 64-Bit Server VM
Java Version: 14.0.1+7
Operating System: Mac OS X
Default Encoding: UTF-8
Language: en
Country: US
--></g></svg>