<?xml version="1.0" encoding="UTF-8" standalone="no"?><svg xmlns="http://www.w3.org/2000/svg" xmlns:xlink="http://www.w3.org/1999/xlink" contentScriptType="application/ecmascript" contentStyleType="text/css" height="710px" preserveAspectRatio="none" style="width:945px;height:710px;" version="1.1" viewBox="0 0 945 710" width="945px" zoomAndPan="magnify"><defs><filter height="300%" id="f1e2o38tj19qbi" width="300%" x="-1" y="-1"><feGaussianBlur result="blurOut" stdDeviation="2.0"/><feColorMatrix in="blurOut" result="blurOut2" type="matrix" values="0 0 0 0 0 0 0 0 0 0 0 0 0 0 0 0 0 0 .4 0"/><feOffset dx="4.0" dy="4.0" in="blurOut2" result="blurOut3"/><feBlend in="SourceGraphic" in2="blurOut3" mode="normal"/></filter></defs><g><!--MD5=[7fd4401f5c5cb0e3d029c879cad30c04]
class Animal--><rect fill="#FEFECE" filter="url(#f1e2o38tj19qbi)" height="86.8652" id="Animal" style="stroke: #A80036; stroke-width: 1.5;" width="204" x="464" y="140.5"/><ellipse cx="542.25" cy="156.5" fill="#A9DCDF" rx="11" ry="11" style="stroke: #A80036; stroke-width: 1.0;"/><path d="M542.3633,152.0981 L541.2095,157.1699 L543.5254,157.1699 Z M540.8691,149.8569 L543.8657,149.8569 L547.2109,162.25 L544.7622,162.25 L543.9985,159.187 L540.7197,159.187 L539.9727,162.25 L537.5239,162.25 Z "/><text fill="#000000" font-family="sans-serif" font-size="12" font-style="italic" lengthAdjust="spacingAndGlyphs" textLength="39" x="562.75" y="161.0352">Animal</text><line style="stroke: #A80036; stroke-width: 1.5;" x1="465" x2="667" y1="172.5" y2="172.5"/><ellipse cx="475" cy="183.5" fill="none" rx="3" ry="3" style="stroke: #038048; stroke-width: 1.0;"/><text fill="#000000" font-family="sans-serif" font-size="11" lengthAdjust="spacingAndGlyphs" textLength="33" x="484" y="187.1348">有生命</text><line style="stroke: #A80036; stroke-width: 1.5;" x1="465" x2="667" y1="193.4551" y2="193.4551"/><ellipse cx="475" cy="204.4551" fill="#84BE84" rx="3" ry="3" style="stroke: #038048; stroke-width: 1.0;"/><text fill="#000000" font-family="sans-serif" font-size="11" lengthAdjust="spacingAndGlyphs" textLength="178" x="484" y="208.0898">新陈代谢(in o2 : 氧气, in water : 水)</text><ellipse cx="475" cy="217.4102" fill="#84BE84" rx="3" ry="3" style="stroke: #038048; stroke-width: 1.0;"/><text fill="#000000" font-family="sans-serif" font-size="11" lengthAdjust="spacingAndGlyphs" textLength="30" x="484" y="221.0449">繁殖()</text><path d="M703,133 L703,180 L668.4023,184 L703,188 L703,234.8633 A0,0 0 0 0 703,234.8633 L919,234.8633 A0,0 0 0 0 919,234.8633 L919,143 L909,133 L703,133 A0,0 0 0 0 703,133 " fill="#FBFB77" filter="url(#f1e2o38tj19qbi)" style="stroke: #A80036; stroke-width: 1.0;"/><path d="M909,133 L909,143 L919,143 L909,133 " fill="#FBFB77" style="stroke: #A80036; stroke-width: 1.0;"/><text fill="#000000" font-family="sans-serif" font-size="13" lengthAdjust="spacingAndGlyphs" textLength="13" x="709" y="150.5684">类</text><text fill="#000000" font-family="sans-serif" font-size="13" lengthAdjust="spacingAndGlyphs" textLength="91" x="709" y="165.8789">第一行：类名称</text><text fill="#000000" font-family="sans-serif" font-size="13" lengthAdjust="spacingAndGlyphs" textLength="169" x="709" y="181.1895">第二行：特性（字段或属性）</text><text fill="#000000" font-family="sans-serif" font-size="13" lengthAdjust="spacingAndGlyphs" textLength="169" x="709" y="196.5">第三行：操作（方法或行为）</text><text fill="#000000" font-family="sans-serif" font-size="13" lengthAdjust="spacingAndGlyphs" textLength="0" x="713" y="211.8105"/><text fill="#000000" font-family="sans-serif" font-size="13" lengthAdjust="spacingAndGlyphs" textLength="195" x="709" y="227.1211">若类名称为斜体，则此类为抽象类</text><!--MD5=[d1dc5b48018a609edd797c1f2fd871b1]
class 氧气--><rect fill="#FEFECE" filter="url(#f1e2o38tj19qbi)" height="48" id="氧气" style="stroke: #A80036; stroke-width: 1.5;" width="56" x="491" y="8"/><ellipse cx="506" cy="24" fill="#ADD1B2" rx="11" ry="11" style="stroke: #A80036; stroke-width: 1.0;"/><path d="M508.4731,30.1431 Q507.8921,30.4419 507.2529,30.5913 Q506.6138,30.7407 505.9082,30.7407 Q503.4014,30.7407 502.0815,29.0889 Q500.7617,27.437 500.7617,24.3159 Q500.7617,21.1865 502.0815,19.5347 Q503.4014,17.8828 505.9082,17.8828 Q506.6138,17.8828 507.2612,18.0322 Q507.9087,18.1816 508.4731,18.4805 L508.4731,21.2031 Q507.8423,20.6221 507.2488,20.3523 Q506.6553,20.0825 506.0244,20.0825 Q504.6797,20.0825 503.9949,21.1492 Q503.3101,22.2158 503.3101,24.3159 Q503.3101,26.4077 503.9949,27.4744 Q504.6797,28.541 506.0244,28.541 Q506.6553,28.541 507.2488,28.2712 Q507.8423,28.0015 508.4731,27.4204 Z "/><text fill="#000000" font-family="sans-serif" font-size="12" lengthAdjust="spacingAndGlyphs" textLength="24" x="520" y="28.5352">氧气</text><line style="stroke: #A80036; stroke-width: 1.5;" x1="492" x2="546" y1="40" y2="40"/><line style="stroke: #A80036; stroke-width: 1.5;" x1="492" x2="546" y1="48" y2="48"/><!--MD5=[8d958adb5f411279ff31b53c9bcfeae7]
class 水--><rect fill="#FEFECE" filter="url(#f1e2o38tj19qbi)" height="48" id="水" style="stroke: #A80036; stroke-width: 1.5;" width="44" x="591" y="8"/><ellipse cx="606" cy="24" fill="#ADD1B2" rx="11" ry="11" style="stroke: #A80036; stroke-width: 1.0;"/><path d="M608.4731,30.1431 Q607.8921,30.4419 607.2529,30.5913 Q606.6138,30.7407 605.9082,30.7407 Q603.4014,30.7407 602.0815,29.0889 Q600.7617,27.437 600.7617,24.3159 Q600.7617,21.1865 602.0815,19.5347 Q603.4014,17.8828 605.9082,17.8828 Q606.6138,17.8828 607.2612,18.0322 Q607.9087,18.1816 608.4731,18.4805 L608.4731,21.2031 Q607.8423,20.6221 607.2488,20.3523 Q606.6553,20.0825 606.0244,20.0825 Q604.6797,20.0825 603.9949,21.1492 Q603.3101,22.2158 603.3101,24.3159 Q603.3101,26.4077 603.9949,27.4744 Q604.6797,28.541 606.0244,28.541 Q606.6553,28.541 607.2488,28.2712 Q607.8423,28.0015 608.4731,27.4204 Z "/><text fill="#000000" font-family="sans-serif" font-size="12" lengthAdjust="spacingAndGlyphs" textLength="12" x="620" y="28.5352">水</text><line style="stroke: #A80036; stroke-width: 1.5;" x1="592" x2="634" y1="40" y2="40"/><line style="stroke: #A80036; stroke-width: 1.5;" x1="592" x2="634" y1="48" y2="48"/><!--MD5=[13b9254874b823b6f61376d2bda29697]
class 鸟--><rect fill="#FEFECE" filter="url(#f1e2o38tj19qbi)" height="86.8652" id="鸟" style="stroke: #A80036; stroke-width: 1.5;" width="114" x="509" y="312"/><ellipse cx="555.75" cy="328" fill="#ADD1B2" rx="11" ry="11" style="stroke: #A80036; stroke-width: 1.0;"/><path d="M558.2231,334.1431 Q557.6421,334.4419 557.0029,334.5913 Q556.3638,334.7407 555.6582,334.7407 Q553.1514,334.7407 551.8315,333.0889 Q550.5117,331.437 550.5117,328.3159 Q550.5117,325.1865 551.8315,323.5347 Q553.1514,321.8828 555.6582,321.8828 Q556.3638,321.8828 557.0112,322.0322 Q557.6587,322.1816 558.2231,322.4805 L558.2231,325.2031 Q557.5923,324.6221 556.9988,324.3523 Q556.4053,324.0825 555.7744,324.0825 Q554.4297,324.0825 553.7449,325.1492 Q553.0601,326.2158 553.0601,328.3159 Q553.0601,330.4077 553.7449,331.4744 Q554.4297,332.541 555.7744,332.541 Q556.4053,332.541 556.9988,332.2712 Q557.5923,332.0015 558.2231,331.4204 Z "/><text fill="#000000" font-family="sans-serif" font-size="12" lengthAdjust="spacingAndGlyphs" textLength="12" x="576.25" y="332.5352">鸟</text><line style="stroke: #A80036; stroke-width: 1.5;" x1="510" x2="622" y1="344" y2="344"/><ellipse cx="520" cy="355" fill="none" rx="3" ry="3" style="stroke: #038048; stroke-width: 1.0;"/><text fill="#000000" font-family="sans-serif" font-size="11" lengthAdjust="spacingAndGlyphs" textLength="22" x="529" y="358.6348">羽毛</text><ellipse cx="520" cy="367.9551" fill="none" rx="3" ry="3" style="stroke: #038048; stroke-width: 1.0;"/><text fill="#000000" font-family="sans-serif" font-size="11" lengthAdjust="spacingAndGlyphs" textLength="88" x="529" y="371.5898">有角质喙没有牙齿</text><line style="stroke: #A80036; stroke-width: 1.5;" x1="510" x2="622" y1="377.9102" y2="377.9102"/><ellipse cx="520" cy="388.9102" fill="#84BE84" rx="3" ry="3" style="stroke: #038048; stroke-width: 1.0;"/><text fill="#000000" font-family="sans-serif" font-size="11" lengthAdjust="spacingAndGlyphs" textLength="30" x="529" y="392.5449">下蛋()</text><!--MD5=[91e0e02b253b0661a26cf6ead5ddbf0c]
class 翅膀--><rect fill="#FEFECE" filter="url(#f1e2o38tj19qbi)" height="48" id="翅膀" style="stroke: #A80036; stroke-width: 1.5;" width="56" x="491" y="489"/><ellipse cx="506" cy="505" fill="#ADD1B2" rx="11" ry="11" style="stroke: #A80036; stroke-width: 1.0;"/><path d="M508.4731,511.1431 Q507.8921,511.4419 507.2529,511.5913 Q506.6138,511.7407 505.9082,511.7407 Q503.4014,511.7407 502.0815,510.0889 Q500.7617,508.437 500.7617,505.3159 Q500.7617,502.1865 502.0815,500.5347 Q503.4014,498.8828 505.9082,498.8828 Q506.6138,498.8828 507.2612,499.0322 Q507.9087,499.1816 508.4731,499.4805 L508.4731,502.2031 Q507.8423,501.6221 507.2488,501.3523 Q506.6553,501.0825 506.0244,501.0825 Q504.6797,501.0825 503.9949,502.1492 Q503.3101,503.2158 503.3101,505.3159 Q503.3101,507.4077 503.9949,508.4744 Q504.6797,509.541 506.0244,509.541 Q506.6553,509.541 507.2488,509.2712 Q507.8423,509.0015 508.4731,508.4204 Z "/><text fill="#000000" font-family="sans-serif" font-size="12" lengthAdjust="spacingAndGlyphs" textLength="24" x="520" y="509.5352">翅膀</text><line style="stroke: #A80036; stroke-width: 1.5;" x1="492" x2="546" y1="521" y2="521"/><line style="stroke: #A80036; stroke-width: 1.5;" x1="492" x2="546" y1="529" y2="529"/><!--MD5=[bdd4b5cea58129e3c8edab2767bb32f9]
class 大雁--><rect fill="#FEFECE" filter="url(#f1e2o38tj19qbi)" height="73.9102" id="大雁" style="stroke: #A80036; stroke-width: 1.5;" width="56" x="303" y="476"/><ellipse cx="318" cy="492" fill="#ADD1B2" rx="11" ry="11" style="stroke: #A80036; stroke-width: 1.0;"/><path d="M320.4731,498.1431 Q319.8921,498.4419 319.2529,498.5913 Q318.6138,498.7407 317.9082,498.7407 Q315.4014,498.7407 314.0815,497.0889 Q312.7617,495.437 312.7617,492.3159 Q312.7617,489.1865 314.0815,487.5347 Q315.4014,485.8828 317.9082,485.8828 Q318.6138,485.8828 319.2612,486.0322 Q319.9087,486.1816 320.4731,486.4805 L320.4731,489.2031 Q319.8423,488.6221 319.2488,488.3523 Q318.6553,488.0825 318.0244,488.0825 Q316.6797,488.0825 315.9949,489.1492 Q315.3101,490.2158 315.3101,492.3159 Q315.3101,494.4077 315.9949,495.4744 Q316.6797,496.541 318.0244,496.541 Q318.6553,496.541 319.2488,496.2712 Q319.8423,496.0015 320.4731,495.4204 Z "/><text fill="#000000" font-family="sans-serif" font-size="12" lengthAdjust="spacingAndGlyphs" textLength="24" x="332" y="496.5352">大雁</text><line style="stroke: #A80036; stroke-width: 1.5;" x1="304" x2="358" y1="508" y2="508"/><line style="stroke: #A80036; stroke-width: 1.5;" x1="304" x2="358" y1="516" y2="516"/><ellipse cx="314" cy="527" fill="#84BE84" rx="3" ry="3" style="stroke: #038048; stroke-width: 1.0;"/><text fill="#000000" font-family="sans-serif" font-size="11" lengthAdjust="spacingAndGlyphs" textLength="30" x="323" y="530.6348">下蛋()</text><ellipse cx="314" cy="539.9551" fill="#84BE84" rx="3" ry="3" style="stroke: #038048; stroke-width: 1.0;"/><text fill="#000000" font-family="sans-serif" font-size="11" lengthAdjust="spacingAndGlyphs" textLength="19" x="323" y="543.5898">飞()</text><!--MD5=[d078fc8af4ec2ea4ae2a5e1749a5d253]
class 飞翔--><rect fill="#FEFECE" filter="url(#f1e2o38tj19qbi)" height="60.9551" id="飞翔" style="stroke: #A80036; stroke-width: 1.5;" width="56" x="201" y="325"/><ellipse cx="216" cy="341" fill="#B4A7E5" rx="11" ry="11" style="stroke: #A80036; stroke-width: 1.0;"/><path d="M212.4277,337.2651 L212.4277,335.1069 L219.8071,335.1069 L219.8071,337.2651 L217.3418,337.2651 L217.3418,345.3418 L219.8071,345.3418 L219.8071,347.5 L212.4277,347.5 L212.4277,345.3418 L214.8931,345.3418 L214.8931,337.2651 Z "/><text fill="#000000" font-family="sans-serif" font-size="12" font-style="italic" lengthAdjust="spacingAndGlyphs" textLength="24" x="230" y="345.5352">飞翔</text><line style="stroke: #A80036; stroke-width: 1.5;" x1="202" x2="256" y1="357" y2="357"/><line style="stroke: #A80036; stroke-width: 1.5;" x1="202" x2="256" y1="365" y2="365"/><ellipse cx="212" cy="376" fill="#84BE84" rx="3" ry="3" style="stroke: #038048; stroke-width: 1.0;"/><text fill="#000000" font-family="sans-serif" font-size="11" lengthAdjust="spacingAndGlyphs" textLength="19" x="221" y="379.6348">飞()</text><path d="M6,320 L6,391.2422 A0,0 0 0 0 6,391.2422 L166,391.2422 A0,0 0 0 0 166,391.2422 L166,359.5 L200.5248,355.5 L166,351.5 L166,330 L156,320 L6,320 A0,0 0 0 0 6,320 " fill="#FBFB77" filter="url(#f1e2o38tj19qbi)" style="stroke: #A80036; stroke-width: 1.0;"/><path d="M156,320 L156,330 L166,330 L156,320 " fill="#FBFB77" style="stroke: #A80036; stroke-width: 1.0;"/><text fill="#000000" font-family="sans-serif" font-size="13" lengthAdjust="spacingAndGlyphs" textLength="26" x="12" y="337.5684">接口</text><text fill="#000000" font-family="sans-serif" font-size="13" lengthAdjust="spacingAndGlyphs" textLength="139" x="12" y="352.8789">顶端有&lt;&lt;interface&gt;&gt;?</text><text fill="#000000" font-family="sans-serif" font-size="13" lengthAdjust="spacingAndGlyphs" textLength="104" x="12" y="368.1895">第一行：接口名称</text><text fill="#000000" font-family="sans-serif" font-size="13" lengthAdjust="spacingAndGlyphs" textLength="104" x="12" y="383.5">第二行：接口方法</text><!--MD5=[6af7f69ea8d411c883bfb49976552f04]
class 雁群--><rect fill="#FEFECE" filter="url(#f1e2o38tj19qbi)" height="73.9102" id="雁群" style="stroke: #A80036; stroke-width: 1.5;" width="78" x="292" y="318.5"/><ellipse cx="316.9" cy="334.5" fill="#ADD1B2" rx="11" ry="11" style="stroke: #A80036; stroke-width: 1.0;"/><path d="M319.3731,340.6431 Q318.7921,340.9419 318.1529,341.0913 Q317.5138,341.2407 316.8082,341.2407 Q314.3014,341.2407 312.9815,339.5889 Q311.6617,337.937 311.6617,334.8159 Q311.6617,331.6865 312.9815,330.0347 Q314.3014,328.3828 316.8082,328.3828 Q317.5138,328.3828 318.1612,328.5322 Q318.8087,328.6816 319.3731,328.9805 L319.3731,331.7031 Q318.7423,331.1221 318.1488,330.8523 Q317.5553,330.5825 316.9244,330.5825 Q315.5797,330.5825 314.8949,331.6492 Q314.2101,332.7158 314.2101,334.8159 Q314.2101,336.9077 314.8949,337.9744 Q315.5797,339.041 316.9244,339.041 Q317.5553,339.041 318.1488,338.7712 Q318.7423,338.5015 319.3731,337.9204 Z "/><text fill="#000000" font-family="sans-serif" font-size="12" lengthAdjust="spacingAndGlyphs" textLength="24" x="333.1" y="339.0352">雁群</text><line style="stroke: #A80036; stroke-width: 1.5;" x1="293" x2="369" y1="350.5" y2="350.5"/><line style="stroke: #A80036; stroke-width: 1.5;" x1="293" x2="369" y1="358.5" y2="358.5"/><ellipse cx="303" cy="369.5" fill="#84BE84" rx="3" ry="3" style="stroke: #038048; stroke-width: 1.0;"/><text fill="#000000" font-family="sans-serif" font-size="11" lengthAdjust="spacingAndGlyphs" textLength="48" x="312" y="373.1348">V形飞行()</text><ellipse cx="303" cy="382.4551" fill="#84BE84" rx="3" ry="3" style="stroke: #038048; stroke-width: 1.0;"/><text fill="#000000" font-family="sans-serif" font-size="11" lengthAdjust="spacingAndGlyphs" textLength="52" x="312" y="386.0898">一行飞行()</text><!--MD5=[40055a1a49dae0ba1fe1f8cb2aed3c39]
class 鸭--><rect fill="#FEFECE" filter="url(#f1e2o38tj19qbi)" height="60.9551" id="鸭" style="stroke: #A80036; stroke-width: 1.5;" width="56" x="583" y="482.5"/><ellipse cx="603.4" cy="498.5" fill="#ADD1B2" rx="11" ry="11" style="stroke: #A80036; stroke-width: 1.0;"/><path d="M605.8731,504.6431 Q605.2921,504.9419 604.6529,505.0913 Q604.0138,505.2407 603.3082,505.2407 Q600.8014,505.2407 599.4815,503.5889 Q598.1617,501.937 598.1617,498.8159 Q598.1617,495.6865 599.4815,494.0347 Q600.8014,492.3828 603.3082,492.3828 Q604.0138,492.3828 604.6612,492.5322 Q605.3087,492.6816 605.8731,492.9805 L605.8731,495.7031 Q605.2423,495.1221 604.6488,494.8523 Q604.0553,494.5825 603.4244,494.5825 Q602.0797,494.5825 601.3949,495.6492 Q600.7101,496.7158 600.7101,498.8159 Q600.7101,500.9077 601.3949,501.9744 Q602.0797,503.041 603.4244,503.041 Q604.0553,503.041 604.6488,502.7712 Q605.2423,502.5015 605.8731,501.9204 Z "/><text fill="#000000" font-family="sans-serif" font-size="12" lengthAdjust="spacingAndGlyphs" textLength="12" x="618.6" y="503.0352">鸭</text><line style="stroke: #A80036; stroke-width: 1.5;" x1="584" x2="638" y1="514.5" y2="514.5"/><line style="stroke: #A80036; stroke-width: 1.5;" x1="584" x2="638" y1="522.5" y2="522.5"/><ellipse cx="594" cy="533.5" fill="#84BE84" rx="3" ry="3" style="stroke: #038048; stroke-width: 1.0;"/><text fill="#000000" font-family="sans-serif" font-size="11" lengthAdjust="spacingAndGlyphs" textLength="30" x="603" y="537.1348">下蛋()</text><!--MD5=[bd4f52d64638c438cdb2acd711995512]
class 唐老鸭--><rect fill="#FEFECE" filter="url(#f1e2o38tj19qbi)" height="60.9551" id="唐老鸭" style="stroke: #A80036; stroke-width: 1.5;" width="68" x="531" y="632"/><ellipse cx="546" cy="648" fill="#ADD1B2" rx="11" ry="11" style="stroke: #A80036; stroke-width: 1.0;"/><path d="M548.4731,654.1431 Q547.8921,654.4419 547.2529,654.5913 Q546.6138,654.7407 545.9082,654.7407 Q543.4014,654.7407 542.0815,653.0889 Q540.7617,651.437 540.7617,648.3159 Q540.7617,645.1865 542.0815,643.5347 Q543.4014,641.8828 545.9082,641.8828 Q546.6138,641.8828 547.2612,642.0322 Q547.9087,642.1816 548.4731,642.4805 L548.4731,645.2031 Q547.8423,644.6221 547.2488,644.3523 Q546.6553,644.0825 546.0244,644.0825 Q544.6797,644.0825 543.9949,645.1492 Q543.3101,646.2158 543.3101,648.3159 Q543.3101,650.4077 543.9949,651.4744 Q544.6797,652.541 546.0244,652.541 Q546.6553,652.541 547.2488,652.2712 Q547.8423,652.0015 548.4731,651.4204 Z "/><text fill="#000000" font-family="sans-serif" font-size="12" lengthAdjust="spacingAndGlyphs" textLength="36" x="560" y="652.5352">唐老鸭</text><line style="stroke: #A80036; stroke-width: 1.5;" x1="532" x2="598" y1="664" y2="664"/><line style="stroke: #A80036; stroke-width: 1.5;" x1="532" x2="598" y1="672" y2="672"/><ellipse cx="542" cy="683" fill="#84BE84" rx="3" ry="3" style="stroke: #038048; stroke-width: 1.0;"/><text fill="#000000" font-family="sans-serif" font-size="11" lengthAdjust="spacingAndGlyphs" textLength="30" x="551" y="686.6348">讲话()</text><ellipse cx="639" cy="662.5" fill="#FEFECE" filter="url(#f1e2o38tj19qbi)" rx="5" ry="5" style="stroke: #A80036; stroke-width: 1.5;"/><text fill="#000000" font-family="sans-serif" font-size="12" lengthAdjust="spacingAndGlyphs" textLength="36" x="621" y="679.1016">讲人话</text><path d="M679,627 L679,658.5 L644.2422,662.5 L679,666.5 L679,698.2422 A0,0 0 0 0 679,698.2422 L843,698.2422 A0,0 0 0 0 843,698.2422 L843,637 L833,627 L679,627 A0,0 0 0 0 679,627 " fill="#FBFB77" filter="url(#f1e2o38tj19qbi)" style="stroke: #A80036; stroke-width: 1.0;"/><path d="M833,627 L833,637 L843,637 L833,627 " fill="#FBFB77" style="stroke: #A80036; stroke-width: 1.0;"/><text fill="#000000" font-family="sans-serif" font-size="13" lengthAdjust="spacingAndGlyphs" textLength="26" x="685" y="644.5684">接口</text><text fill="#000000" font-family="sans-serif" font-size="13" lengthAdjust="spacingAndGlyphs" textLength="78" x="685" y="659.8789">棒棒糖表示法</text><text fill="#000000" font-family="sans-serif" font-size="13" lengthAdjust="spacingAndGlyphs" textLength="104" x="685" y="675.1895">圆圈旁为接口名称</text><text fill="#000000" font-family="sans-serif" font-size="13" lengthAdjust="spacingAndGlyphs" textLength="143" x="685" y="690.5">接口方法在实现类中出现</text><!--MD5=[211ba64f5428c9e7827f8bb63c01c633]
class 企鹅--><rect fill="#FEFECE" filter="url(#f1e2o38tj19qbi)" height="60.9551" id="企鹅" style="stroke: #A80036; stroke-width: 1.5;" width="56" x="756" y="482.5"/><ellipse cx="771" cy="498.5" fill="#ADD1B2" rx="11" ry="11" style="stroke: #A80036; stroke-width: 1.0;"/><path d="M773.4731,504.6431 Q772.8921,504.9419 772.2529,505.0913 Q771.6138,505.2407 770.9082,505.2407 Q768.4014,505.2407 767.0815,503.5889 Q765.7617,501.937 765.7617,498.8159 Q765.7617,495.6865 767.0815,494.0347 Q768.4014,492.3828 770.9082,492.3828 Q771.6138,492.3828 772.2612,492.5322 Q772.9087,492.6816 773.4731,492.9805 L773.4731,495.7031 Q772.8423,495.1221 772.2488,494.8523 Q771.6553,494.5825 771.0244,494.5825 Q769.6797,494.5825 768.9949,495.6492 Q768.3101,496.7158 768.3101,498.8159 Q768.3101,500.9077 768.9949,501.9744 Q769.6797,503.041 771.0244,503.041 Q771.6553,503.041 772.2488,502.7712 Q772.8423,502.5015 773.4731,501.9204 Z "/><text fill="#000000" font-family="sans-serif" font-size="12" lengthAdjust="spacingAndGlyphs" textLength="24" x="785" y="503.0352">企鹅</text><line style="stroke: #A80036; stroke-width: 1.5;" x1="757" x2="811" y1="514.5" y2="514.5"/><line style="stroke: #A80036; stroke-width: 1.5;" x1="757" x2="811" y1="522.5" y2="522.5"/><ellipse cx="767" cy="533.5" fill="#84BE84" rx="3" ry="3" style="stroke: #038048; stroke-width: 1.0;"/><text fill="#000000" font-family="sans-serif" font-size="11" lengthAdjust="spacingAndGlyphs" textLength="30" x="776" y="537.1348">下蛋()</text><!--MD5=[c78418ffb89e3b6db73dc2d2009d7996]
class 气候--><rect fill="#FEFECE" filter="url(#f1e2o38tj19qbi)" height="48" id="气候" style="stroke: #A80036; stroke-width: 1.5;" width="56" x="878" y="638.5"/><ellipse cx="893" cy="654.5" fill="#ADD1B2" rx="11" ry="11" style="stroke: #A80036; stroke-width: 1.0;"/><path d="M895.4731,660.6431 Q894.8921,660.9419 894.2529,661.0913 Q893.6138,661.2407 892.9082,661.2407 Q890.4014,661.2407 889.0815,659.5889 Q887.7617,657.937 887.7617,654.8159 Q887.7617,651.6865 889.0815,650.0347 Q890.4014,648.3828 892.9082,648.3828 Q893.6138,648.3828 894.2612,648.5322 Q894.9087,648.6816 895.4731,648.9805 L895.4731,651.7031 Q894.8423,651.1221 894.2488,650.8523 Q893.6553,650.5825 893.0244,650.5825 Q891.6797,650.5825 890.9949,651.6492 Q890.3101,652.7158 890.3101,654.8159 Q890.3101,656.9077 890.9949,657.9744 Q891.6797,659.041 893.0244,659.041 Q893.6553,659.041 894.2488,658.7712 Q894.8423,658.5015 895.4731,657.9204 Z "/><text fill="#000000" font-family="sans-serif" font-size="12" lengthAdjust="spacingAndGlyphs" textLength="24" x="907" y="659.0352">气候</text><line style="stroke: #A80036; stroke-width: 1.5;" x1="879" x2="933" y1="670.5" y2="670.5"/><line style="stroke: #A80036; stroke-width: 1.5;" x1="879" x2="933" y1="678.5" y2="678.5"/><!--MD5=[e213bc4eeaa38e430d53ebd6fad8446e]
reverse link 氧气 to Animal--><path d="M513.6748,61.1573 C512.3325,74.1831 512.194,89.5883 516,103 C519.6544,115.8775 526.002,128.7151 532.9725,140.2488 " fill="none" id="氧气&lt;-Animal" style="stroke: #A80036; stroke-width: 1.0; stroke-dasharray: 7.0,7.0;"/><polygon fill="#A80036" points="514.2666,56.106,509.2464,64.5794,513.6847,61.072,517.1921,65.5103,514.2666,56.106" style="stroke: #A80036; stroke-width: 1.0;"/><text fill="#000000" font-family="sans-serif" font-size="13" lengthAdjust="spacingAndGlyphs" textLength="52" x="517" y="99.5684">依赖关系</text><!--MD5=[ffdb5c6772261204b366896cb050ade5]
reverse link 水 to Animal--><path d="M604.0267,61.02 C597.0815,83.481 587.351,114.95 579.4718,140.4318 " fill="none" id="水&lt;-Animal" style="stroke: #A80036; stroke-width: 1.0; stroke-dasharray: 7.0,7.0;"/><polygon fill="#A80036" points="605.5527,56.0849,599.0724,63.5015,604.0756,60.8617,606.7153,65.8649,605.5527,56.0849" style="stroke: #A80036; stroke-width: 1.0;"/><text fill="#000000" font-family="sans-serif" font-size="13" lengthAdjust="spacingAndGlyphs" textLength="52" x="596" y="99.5684">依赖关系</text><!--MD5=[26fdaa6a79d029460f5bd793bc4b7339]
reverse link Animal to 鸟--><path d="M566,247.7942 C566,269.1333 566,292.4172 566,311.8594 " fill="none" id="Animal&lt;-鸟" style="stroke: #A80036; stroke-width: 1.0;"/><polygon fill="none" points="559.0001,247.7205,566,227.7204,573.0001,247.7204,559.0001,247.7205" style="stroke: #A80036; stroke-width: 1.0;"/><text fill="#000000" font-family="sans-serif" font-size="13" lengthAdjust="spacingAndGlyphs" textLength="52" x="567" y="278.5684">继承关系</text><!--MD5=[5a88f7873d16532640ea90db18fda156]
reverse link 鸟 to 翅膀--><path d="M531.7673,411.0756 C529.1198,416.9785 526.7866,423.0145 525,429 C519.1456,448.6136 517.9,471.8969 517.9732,488.9703 " fill="none" id="鸟&lt;-翅膀" style="stroke: #A80036; stroke-width: 1.0;"/><polygon fill="#A80036" points="537.5685,399.2052,531.3402,402.8395,532.2994,409.9865,538.5277,406.3522,537.5685,399.2052" style="stroke: #A80036; stroke-width: 1.0;"/><text fill="#000000" font-family="sans-serif" font-size="13" lengthAdjust="spacingAndGlyphs" textLength="52" x="526" y="442.5684">组合关系</text><!--MD5=[3d8209ba0aafb62ee4b8da928618c1e9]
reverse link 鸟 to 大雁--><path d="M492.0748,405.0456 C446.9486,435.2897 391.8325,472.2293 359.1736,494.1177 " fill="none" id="鸟&lt;-大雁" style="stroke: #A80036; stroke-width: 1.0;"/><polygon fill="none" points="488.3021,399.1474,508.813,393.8274,496.0964,410.7771,488.3021,399.1474" style="stroke: #A80036; stroke-width: 1.0;"/><text fill="#000000" font-family="sans-serif" font-size="13" lengthAdjust="spacingAndGlyphs" textLength="52" x="456" y="442.5684">继承关系</text><!--MD5=[4b745cfbdeb627b29adcd948e9ed39ac]
reverse link 飞翔 to 大雁--><path d="M245.4515,405.4274 C251.0007,419.1159 257.8853,433.592 266,446 C276.2009,461.5979 290.3537,476.7024 302.8494,488.6093 " fill="none" id="飞翔&lt;-大雁" style="stroke: #A80036; stroke-width: 1.0; stroke-dasharray: 7.0,7.0;"/><polygon fill="none" points="238.7357,407.4531,238.289,386.2682,251.8493,402.5507,238.7357,407.4531" style="stroke: #A80036; stroke-width: 1.0;"/><text fill="#000000" font-family="sans-serif" font-size="13" lengthAdjust="spacingAndGlyphs" textLength="52" x="267" y="442.5684">实现接口</text><!--MD5=[f53bd3a3a481d6497b9806c0e5962065]
reverse link 雁群 to 大雁--><path d="M328.3323,406.0498 C327.9177,419.0657 327.7103,433.0523 328,446 C328.2162,455.6618 328.6076,466.1014 329.0378,475.7988 " fill="none" id="雁群&lt;-大雁" style="stroke: #A80036; stroke-width: 1.0;"/><polygon fill="#FFFFFF" points="328.8272,392.9214,324.604,398.7665,328.3752,404.9129,332.5983,399.0678,328.8272,392.9214" style="stroke: #A80036; stroke-width: 1.0;"/><text fill="#000000" font-family="sans-serif" font-size="13" lengthAdjust="spacingAndGlyphs" textLength="52" x="329" y="442.5684">聚合关系</text><!--MD5=[f128c05da700d9d959aa4ed3ed80cfee]
reverse link 鸟 to 鸭--><path d="M584.0878,418.8075 C590.3429,440.7 597.0714,464.2499 602.2359,482.3258 " fill="none" id="鸟&lt;-鸭" style="stroke: #A80036; stroke-width: 1.0;"/><polygon fill="none" points="577.2988,420.5261,578.535,399.3725,590.7602,416.6799,577.2988,420.5261" style="stroke: #A80036; stroke-width: 1.0;"/><text fill="#000000" font-family="sans-serif" font-size="13" lengthAdjust="spacingAndGlyphs" textLength="52" x="592" y="442.5684">继承关系</text><!--MD5=[0223b6e542a3d7802deed1766eb7c126]
link 唐老鸭 to 唐老鸭lol26--><path d="M599.1094,662.5 C610.6403,662.5 622.1711,662.5 633.702,662.5 " fill="none" id="唐老鸭-唐老鸭lol26" style="stroke: #A80036; stroke-width: 1.0;"/><!--MD5=[242f63f1bb1512c586c8328399b7b424]
reverse link 鸭 to 唐老鸭--><path d="M595.6384,562.9253 C588.6121,585.7606 580.513,612.0826 574.4072,631.9266 " fill="none" id="鸭&lt;-唐老鸭" style="stroke: #A80036; stroke-width: 1.0;"/><polygon fill="none" points="589.008,560.6713,601.5802,543.6143,602.3889,564.7885,589.008,560.6713" style="stroke: #A80036; stroke-width: 1.0;"/><text fill="#000000" font-family="sans-serif" font-size="13" lengthAdjust="spacingAndGlyphs" textLength="52" x="590" y="593.5684">继承关系</text><!--MD5=[1532501927f13f64de03a17d63758fae]
reverse link 鸟 to 企鹅--><path d="M639.6225,408.6905 C679.618,437.5864 726.7413,471.6319 755.9987,492.7697 " fill="none" id="鸟&lt;-企鹅" style="stroke: #A80036; stroke-width: 1.0;"/><polygon fill="none" points="635.3892,414.2679,623.2769,396.8813,643.588,402.9198,635.3892,414.2679" style="stroke: #A80036; stroke-width: 1.0;"/><text fill="#000000" font-family="sans-serif" font-size="13" lengthAdjust="spacingAndGlyphs" textLength="52" x="689" y="442.5684">继承关系</text><!--MD5=[5c678f43e8d6a5f4a6ab624bacd2791a]
link 企鹅 to 气候--><path d="M808.9829,543.6143 C830.6874,570.2112 861.8699,608.4226 882.9776,634.2881 " fill="none" id="企鹅-&gt;气候" style="stroke: #A80036; stroke-width: 1.0;"/><polygon fill="#A80036" points="886.2757,638.3297,883.6845,628.8278,883.1144,634.4559,877.4864,633.8858,886.2757,638.3297" style="stroke: #A80036; stroke-width: 1.0;"/><text fill="#000000" font-family="sans-serif" font-size="13" lengthAdjust="spacingAndGlyphs" textLength="52" x="853" y="593.5684">关联关系</text><!--MD5=[e831646798d55c2c3213a90efa7084fc]
@startuml

abstract class Animal {
    {field} +有生命
    {method} +新陈代谢(in o2 : 氧气, in water : 水)
    {method} +繁殖()
}

note right
类
第一行：类名称
第二行：特性（字段或属性）
第三行：操作（方法或行为）

若类名称为斜体，则此类为抽象类
end note

class 氧气

class 水

氧气 <.. Animal : 依赖关系
水 <.. Animal : 依赖关系

class 鸟{
    {field} +羽毛
    {field} +有角质喙没有牙齿
    {method} +下蛋()
}

Animal <|- - 鸟 : 继承关系

class 翅膀

鸟 *- - 翅膀 : 组合关系

class 大雁{
    +下蛋()
    +飞()
}

鸟 <|- - 大雁 : 继承关系

interface 飞翔 {
    +飞()
}

note left
接口
顶端有<<interface>>?
第一行：接口名称
第二行：接口方法
end note

飞翔 <|.. 大雁 : 实现接口

class 雁群{
    +V形飞行()
    +一行飞行()
}

雁群 o- - 大雁 : 聚合关系

鸭 : +下蛋()

鸟 <|- - 鸭 : 继承关系

唐老鸭 : +讲话()
唐老鸭 -() 讲人话
note right
接口
棒棒糖表示法
圆圈旁为接口名称
接口方法在实现类中出现
end note


鸭 <|- - 唐老鸭 : 继承关系

企鹅 : +下蛋()

鸟 <|- - 企鹅 : 继承关系

企鹅 - -> 气候 : 关联关系

@enduml

PlantUML version 1.2020.10(Sun May 17 17:35:57 CST 2020)
(GPL source distribution)
Java Runtime: OpenJDK Runtime Environment
JVM: OpenJDK 64-Bit Server VM
Java Version: 14.0.1+7
Operating System: Mac OS X
Default Encoding: UTF-8
Language: en
Country: US
--></g></svg>