<?xml version="1.0" encoding="UTF-8" standalone="no"?><svg xmlns="http://www.w3.org/2000/svg" xmlns:xlink="http://www.w3.org/1999/xlink" contentScriptType="application/ecmascript" contentStyleType="text/css" height="243px" preserveAspectRatio="none" style="width:851px;height:243px;" version="1.1" viewBox="0 0 851 243" width="851px" zoomAndPan="magnify"><defs><filter height="300%" id="fjndsbebcr166" width="300%" x="-1" y="-1"><feGaussianBlur result="blurOut" stdDeviation="2.0"/><feColorMatrix in="blurOut" result="blurOut2" type="matrix" values="0 0 0 0 0 0 0 0 0 0 0 0 0 0 0 0 0 0 .4 0"/><feOffset dx="4.0" dy="4.0" in="blurOut2" result="blurOut3"/><feBlend in="SourceGraphic" in2="blurOut3" mode="normal"/></filter></defs><g><!--MD5=[361e73a814e28ed043957a958c9da4ce]
class Operator--><rect fill="#FEFECE" filter="url(#fjndsbebcr166)" height="86.8652" id="Operator" style="stroke: #A80036; stroke-width: 1.5;" width="154" x="324" y="8"/><ellipse cx="370.75" cy="24" fill="#ADD1B2" rx="11" ry="11" style="stroke: #A80036; stroke-width: 1.0;"/><path d="M373.2231,30.1431 Q372.6421,30.4419 372.0029,30.5913 Q371.3638,30.7407 370.6582,30.7407 Q368.1514,30.7407 366.8315,29.0889 Q365.5117,27.437 365.5117,24.3159 Q365.5117,21.1865 366.8315,19.5347 Q368.1514,17.8828 370.6582,17.8828 Q371.3638,17.8828 372.0112,18.0322 Q372.6587,18.1816 373.2231,18.4805 L373.2231,21.2031 Q372.5923,20.6221 371.9988,20.3523 Q371.4053,20.0825 370.7744,20.0825 Q369.4297,20.0825 368.7449,21.1492 Q368.0601,22.2158 368.0601,24.3159 Q368.0601,26.4077 368.7449,27.4744 Q369.4297,28.541 370.7744,28.541 Q371.4053,28.541 371.9988,28.2712 Q372.5923,28.0015 373.2231,27.4204 Z "/><text fill="#000000" font-family="sans-serif" font-size="12" lengthAdjust="spacingAndGlyphs" textLength="52" x="391.25" y="28.5352">Operator</text><line style="stroke: #A80036; stroke-width: 1.5;" x1="325" x2="477" y1="40" y2="40"/><ellipse cx="335" cy="51" fill="none" rx="3" ry="3" style="stroke: #038048; stroke-width: 1.0;"/><text fill="#000000" font-family="sans-serif" font-size="11" lengthAdjust="spacingAndGlyphs" textLength="111" x="344" y="54.6348">firstNumber : double</text><ellipse cx="335" cy="63.9551" fill="none" rx="3" ry="3" style="stroke: #038048; stroke-width: 1.0;"/><text fill="#000000" font-family="sans-serif" font-size="11" lengthAdjust="spacingAndGlyphs" textLength="128" x="344" y="67.5898">secondNumber : double</text><line style="stroke: #A80036; stroke-width: 1.5;" x1="325" x2="477" y1="73.9102" y2="73.9102"/><ellipse cx="335" cy="84.9102" fill="#84BE84" rx="3" ry="3" style="stroke: #038048; stroke-width: 1.0;"/><text fill="#000000" font-family="sans-serif" font-size="11" lengthAdjust="spacingAndGlyphs" textLength="104" x="344" y="88.5449">getResult() : double</text><!--MD5=[d06a1b9870429d125d3a6869605c51ed]
class OperationAdd--><rect fill="#FEFECE" filter="url(#fjndsbebcr166)" height="60.9551" id="OperationAdd" style="stroke: #A80036; stroke-width: 1.5;" width="130" x="6" y="172"/><ellipse cx="28.65" cy="188" fill="#ADD1B2" rx="11" ry="11" style="stroke: #A80036; stroke-width: 1.0;"/><path d="M31.1231,194.1431 Q30.5421,194.4419 29.9029,194.5913 Q29.2638,194.7407 28.5582,194.7407 Q26.0514,194.7407 24.7315,193.0889 Q23.4117,191.437 23.4117,188.3159 Q23.4117,185.1865 24.7315,183.5347 Q26.0514,181.8828 28.5582,181.8828 Q29.2638,181.8828 29.9112,182.0322 Q30.5587,182.1816 31.1231,182.4805 L31.1231,185.2031 Q30.4923,184.6221 29.8988,184.3523 Q29.3053,184.0825 28.6744,184.0825 Q27.3297,184.0825 26.6449,185.1492 Q25.9601,186.2158 25.9601,188.3159 Q25.9601,190.4077 26.6449,191.4744 Q27.3297,192.541 28.6744,192.541 Q29.3053,192.541 29.8988,192.2712 Q30.4923,192.0015 31.1231,191.4204 Z "/><text fill="#000000" font-family="sans-serif" font-size="12" lengthAdjust="spacingAndGlyphs" textLength="81" x="44.35" y="192.5352">OperationAdd</text><line style="stroke: #A80036; stroke-width: 1.5;" x1="7" x2="135" y1="204" y2="204"/><line style="stroke: #A80036; stroke-width: 1.5;" x1="7" x2="135" y1="212" y2="212"/><ellipse cx="17" cy="223" fill="#84BE84" rx="3" ry="3" style="stroke: #038048; stroke-width: 1.0;"/><text fill="#000000" font-family="sans-serif" font-size="11" lengthAdjust="spacingAndGlyphs" textLength="104" x="26" y="226.6348">getResult() : double</text><!--MD5=[87013d024c639a072dc84b14693e2c12]
class OperationSub--><rect fill="#FEFECE" filter="url(#fjndsbebcr166)" height="60.9551" id="OperationSub" style="stroke: #A80036; stroke-width: 1.5;" width="130" x="171" y="172"/><ellipse cx="195" cy="188" fill="#ADD1B2" rx="11" ry="11" style="stroke: #A80036; stroke-width: 1.0;"/><path d="M197.4731,194.1431 Q196.8921,194.4419 196.2529,194.5913 Q195.6138,194.7407 194.9082,194.7407 Q192.4014,194.7407 191.0815,193.0889 Q189.7617,191.437 189.7617,188.3159 Q189.7617,185.1865 191.0815,183.5347 Q192.4014,181.8828 194.9082,181.8828 Q195.6138,181.8828 196.2612,182.0322 Q196.9087,182.1816 197.4731,182.4805 L197.4731,185.2031 Q196.8423,184.6221 196.2488,184.3523 Q195.6553,184.0825 195.0244,184.0825 Q193.6797,184.0825 192.9949,185.1492 Q192.3101,186.2158 192.3101,188.3159 Q192.3101,190.4077 192.9949,191.4744 Q193.6797,192.541 195.0244,192.541 Q195.6553,192.541 196.2488,192.2712 Q196.8423,192.0015 197.4731,191.4204 Z "/><text fill="#000000" font-family="sans-serif" font-size="12" lengthAdjust="spacingAndGlyphs" textLength="78" x="211" y="192.5352">OperationSub</text><line style="stroke: #A80036; stroke-width: 1.5;" x1="172" x2="300" y1="204" y2="204"/><line style="stroke: #A80036; stroke-width: 1.5;" x1="172" x2="300" y1="212" y2="212"/><ellipse cx="182" cy="223" fill="#84BE84" rx="3" ry="3" style="stroke: #038048; stroke-width: 1.0;"/><text fill="#000000" font-family="sans-serif" font-size="11" lengthAdjust="spacingAndGlyphs" textLength="104" x="191" y="226.6348">getResult() : double</text><!--MD5=[9f5dc6375e24159fd9127669f58173e0]
class OperationMul--><rect fill="#FEFECE" filter="url(#fjndsbebcr166)" height="60.9551" id="OperationMul" style="stroke: #A80036; stroke-width: 1.5;" width="130" x="336" y="172"/><ellipse cx="360.45" cy="188" fill="#ADD1B2" rx="11" ry="11" style="stroke: #A80036; stroke-width: 1.0;"/><path d="M362.9231,194.1431 Q362.3421,194.4419 361.7029,194.5913 Q361.0638,194.7407 360.3582,194.7407 Q357.8514,194.7407 356.5315,193.0889 Q355.2117,191.437 355.2117,188.3159 Q355.2117,185.1865 356.5315,183.5347 Q357.8514,181.8828 360.3582,181.8828 Q361.0638,181.8828 361.7112,182.0322 Q362.3587,182.1816 362.9231,182.4805 L362.9231,185.2031 Q362.2923,184.6221 361.6988,184.3523 Q361.1053,184.0825 360.4744,184.0825 Q359.1297,184.0825 358.4449,185.1492 Q357.7601,186.2158 357.7601,188.3159 Q357.7601,190.4077 358.4449,191.4744 Q359.1297,192.541 360.4744,192.541 Q361.1053,192.541 361.6988,192.2712 Q362.2923,192.0015 362.9231,191.4204 Z "/><text fill="#000000" font-family="sans-serif" font-size="12" lengthAdjust="spacingAndGlyphs" textLength="77" x="376.55" y="192.5352">OperationMul</text><line style="stroke: #A80036; stroke-width: 1.5;" x1="337" x2="465" y1="204" y2="204"/><line style="stroke: #A80036; stroke-width: 1.5;" x1="337" x2="465" y1="212" y2="212"/><ellipse cx="347" cy="223" fill="#84BE84" rx="3" ry="3" style="stroke: #038048; stroke-width: 1.0;"/><text fill="#000000" font-family="sans-serif" font-size="11" lengthAdjust="spacingAndGlyphs" textLength="104" x="356" y="226.6348">getResult() : double</text><!--MD5=[92ae24e816ac9cfff094806b1e8ad2aa]
class OperationDiv--><rect fill="#FEFECE" filter="url(#fjndsbebcr166)" height="60.9551" id="OperationDiv" style="stroke: #A80036; stroke-width: 1.5;" width="130" x="501" y="172"/><ellipse cx="526.35" cy="188" fill="#ADD1B2" rx="11" ry="11" style="stroke: #A80036; stroke-width: 1.0;"/><path d="M528.8231,194.1431 Q528.2421,194.4419 527.6029,194.5913 Q526.9638,194.7407 526.2582,194.7407 Q523.7514,194.7407 522.4315,193.0889 Q521.1117,191.437 521.1117,188.3159 Q521.1117,185.1865 522.4315,183.5347 Q523.7514,181.8828 526.2582,181.8828 Q526.9638,181.8828 527.6112,182.0322 Q528.2587,182.1816 528.8231,182.4805 L528.8231,185.2031 Q528.1923,184.6221 527.5988,184.3523 Q527.0053,184.0825 526.3744,184.0825 Q525.0297,184.0825 524.3449,185.1492 Q523.6601,186.2158 523.6601,188.3159 Q523.6601,190.4077 524.3449,191.4744 Q525.0297,192.541 526.3744,192.541 Q527.0053,192.541 527.5988,192.2712 Q528.1923,192.0015 528.8231,191.4204 Z "/><text fill="#000000" font-family="sans-serif" font-size="12" lengthAdjust="spacingAndGlyphs" textLength="75" x="542.65" y="192.5352">OperationDiv</text><line style="stroke: #A80036; stroke-width: 1.5;" x1="502" x2="630" y1="204" y2="204"/><line style="stroke: #A80036; stroke-width: 1.5;" x1="502" x2="630" y1="212" y2="212"/><ellipse cx="512" cy="223" fill="#84BE84" rx="3" ry="3" style="stroke: #038048; stroke-width: 1.0;"/><text fill="#000000" font-family="sans-serif" font-size="11" lengthAdjust="spacingAndGlyphs" textLength="104" x="521" y="226.6348">getResult() : double</text><!--MD5=[776a0e89e09c86de9599a24d46bfde57]
class OperationFactory--><rect fill="#FEFECE" filter="url(#fjndsbebcr166)" height="60.9551" id="OperationFactory" style="stroke: #A80036; stroke-width: 1.5;" width="174" x="666" y="172"/><ellipse cx="700.8" cy="188" fill="#ADD1B2" rx="11" ry="11" style="stroke: #A80036; stroke-width: 1.0;"/><path d="M703.2731,194.1431 Q702.6921,194.4419 702.0529,194.5913 Q701.4138,194.7407 700.7082,194.7407 Q698.2014,194.7407 696.8815,193.0889 Q695.5617,191.437 695.5617,188.3159 Q695.5617,185.1865 696.8815,183.5347 Q698.2014,181.8828 700.7082,181.8828 Q701.4138,181.8828 702.0612,182.0322 Q702.7087,182.1816 703.2731,182.4805 L703.2731,185.2031 Q702.6423,184.6221 702.0488,184.3523 Q701.4553,184.0825 700.8244,184.0825 Q699.4797,184.0825 698.7949,185.1492 Q698.1101,186.2158 698.1101,188.3159 Q698.1101,190.4077 698.7949,191.4744 Q699.4797,192.541 700.8244,192.541 Q701.4553,192.541 702.0488,192.2712 Q702.6423,192.0015 703.2731,191.4204 Z "/><text fill="#000000" font-family="sans-serif" font-size="12" lengthAdjust="spacingAndGlyphs" textLength="98" x="719.2" y="192.5352">OperationFactory</text><line style="stroke: #A80036; stroke-width: 1.5;" x1="667" x2="839" y1="204" y2="204"/><line style="stroke: #A80036; stroke-width: 1.5;" x1="667" x2="839" y1="212" y2="212"/><ellipse cx="677" cy="223" fill="#84BE84" rx="3" ry="3" style="stroke: #038048; stroke-width: 1.0;"/><text fill="#000000" font-family="sans-serif" font-size="11" lengthAdjust="spacingAndGlyphs" textLength="148" x="686" y="226.6348">createOperator() : Operator</text><!--MD5=[5da469818d05e422824ff663ba4726cb]
reverse link Operator to OperationAdd--><path d="M305.3567,95.2641 C251.0562,120.1106 184.5043,150.5632 136.2143,172.6595 " fill="none" id="Operator&lt;-OperationAdd" style="stroke: #A80036; stroke-width: 1.0;"/><polygon fill="none" points="302.5305,88.8593,323.6297,86.9028,308.3558,101.5898,302.5305,88.8593" style="stroke: #A80036; stroke-width: 1.0;"/><text fill="#000000" font-family="sans-serif" font-size="13" lengthAdjust="spacingAndGlyphs" textLength="52" x="237" y="138.5684">继承关系</text><!--MD5=[0989fa61b39cc9f52b0685a219ec6190]
reverse link Operator to OperationSub--><path d="M338.3102,108.8707 C314.9121,130.2835 289.2544,153.7642 269.4865,171.8548 " fill="none" id="Operator&lt;-OperationSub" style="stroke: #A80036; stroke-width: 1.0;"/><polygon fill="none" points="333.7951,103.5138,353.2752,95.1755,343.2468,113.8418,333.7951,103.5138" style="stroke: #A80036; stroke-width: 1.0;"/><text fill="#000000" font-family="sans-serif" font-size="13" lengthAdjust="spacingAndGlyphs" textLength="52" x="320" y="138.5684">继承关系</text><!--MD5=[7a24d8716738fae64b2f2e36f798c8f2]
reverse link Operator to OperationMul--><path d="M401,115.3491 C401,134.9257 401,155.5732 401,171.8548 " fill="none" id="Operator&lt;-OperationMul" style="stroke: #A80036; stroke-width: 1.0;"/><polygon fill="none" points="394.0001,115.1755,401,95.1755,408.0001,115.1754,394.0001,115.1755" style="stroke: #A80036; stroke-width: 1.0;"/><text fill="#000000" font-family="sans-serif" font-size="13" lengthAdjust="spacingAndGlyphs" textLength="52" x="402" y="138.5684">继承关系</text><!--MD5=[0481eff8b2e15c5eb9ae5826677a8636]
reverse link Operator to OperationDiv--><path d="M463.6898,108.8707 C487.0879,130.2835 512.7456,153.7642 532.5135,171.8548 " fill="none" id="Operator&lt;-OperationDiv" style="stroke: #A80036; stroke-width: 1.0;"/><polygon fill="none" points="458.7532,113.8418,448.7248,95.1755,468.2049,103.5138,458.7532,113.8418" style="stroke: #A80036; stroke-width: 1.0;"/><text fill="#000000" font-family="sans-serif" font-size="13" lengthAdjust="spacingAndGlyphs" textLength="52" x="499" y="138.5684">继承关系</text><!--MD5=[838a4aece6ad535465078ea0beb425c6]
reverse link Operator to OperationFactory--><path d="M482.9087,86.637 C543.095,112.4555 624.0743,147.1938 681.6243,171.8814 " fill="none" id="Operator&lt;-OperationFactory" style="stroke: #A80036; stroke-width: 1.0; stroke-dasharray: 7.0,7.0;"/><polygon fill="#A80036" points="478.2479,84.6376,484.9419,91.8619,482.8429,86.6089,488.0959,84.5099,478.2479,84.6376" style="stroke: #A80036; stroke-width: 1.0;"/><text fill="#000000" font-family="sans-serif" font-size="13" lengthAdjust="spacingAndGlyphs" textLength="26" x="609" y="138.5684">创建</text><!--MD5=[b293fc8bd475ae52ff8f29b6710e587c]
@startuml
Operator <|- - OperationAdd : 继承关系
Operator <|- - OperationSub : 继承关系
Operator <|- - OperationMul : 继承关系
Operator <|- - OperationDiv : 继承关系
Operator <.. OperationFactory : 创建
class Operator {
    {field} +firstNumber : double
    {field} + secondNumber : double
    {method} +getResult() : double
}
class OperationAdd {
    {method} +getResult() : double
}
class OperationSub {
    {method} +getResult() : double
}
class OperationMul {
    {method} +getResult() : double
}
class OperationDiv {
    {method} +getResult() : double
}
class OperationFactory {
    {method} +createOperator() : Operator
}
@enduml

PlantUML version 1.2020.10(Sun May 17 17:35:57 CST 2020)
(GPL source distribution)
Java Runtime: OpenJDK Runtime Environment
JVM: OpenJDK 64-Bit Server VM
Java Version: 14.0.1+7
Operating System: Mac OS X
Default Encoding: UTF-8
Language: en
Country: US
--></g></svg>